Coordinates
version=1
nRows=7
nColumns=40
inDegrees=yes

Units are S.I. units (second, meters, Newtons, ...)
Angles are in degrees.

endheader
time	pelvis_tilt	pelvis_list	pelvis_rotation	pelvis_tx	pelvis_ty	pelvis_tz	hip_flexion_r	hip_adduction_r	hip_rotation_r	knee_angle_r	knee_angle_r_beta	ankle_angle_r	subtalar_angle_r	mtp_angle_r	hip_flexion_l	hip_adduction_l	hip_rotation_l	knee_angle_l	knee_angle_l_beta	ankle_angle_l	subtalar_angle_l	mtp_angle_l	lumbar_extension	lumbar_bending	lumbar_rotation	arm_flex_r	arm_add_r	arm_rot_r	elbow_flex_r	pro_sup_r	wrist_flex_r	wrist_dev_r	arm_flex_l	arm_add_l	arm_rot_l	elbow_flex_l	pro_sup_l	wrist_flex_l	wrist_dev_l
     42.98000000	     -4.65529276	     -5.48199094	     -4.96886083	      0.92803279	      0.91998860	      0.43830157	     19.36907027	     -6.17789820	     -3.72974772	     59.67513884	     59.67513884	      1.59012537	    -13.94877816	     -1.30618056	     19.40270720	     -5.01930839	     -3.58591789	     31.41679901	     31.41679901	     18.09711253	    -16.09716112	      5.89253263	     -9.67663848	      4.90826134	      2.09942069	     10.48703325	    -12.04918430	     -8.71629608	     26.07989417	     46.28591465	      0.00000000	      0.00000000	     21.14909270	    -16.16952146	     -2.31016468	     41.85737242	     45.99760036	      0.00000000	      0.00000000
     42.99835714	     -4.57050039	     -5.49756345	     -5.50927577	      0.92684559	      0.91882693	      0.43726660	     20.82023976	     -6.16333908	     -3.57919160	     60.74913361	     60.74913361	      2.14626496	    -14.12895905	     -1.58126896	     19.17217550	     -4.96600327	     -3.74281607	     31.94820283	     31.94820283	     18.61424540	    -16.65017963	      5.93409629	     -9.81251381	      5.04145692	      1.75829446	      7.79806478	    -12.04922505	     -8.71732167	     24.89031184	     46.31845961	      0.00000000	      0.00000000	     22.20195000	    -16.57793360	     -2.59230753	     42.66132614	     46.05172819	      0.00000000	      0.00000000
     43.01671429	     -4.45038699	     -5.57259270	     -6.09895352	      0.92566922	      0.91789440	      0.43643895	     22.16838696	     -5.96526950	     -3.34370594	     61.51574002	     61.51574002	      2.72838576	    -14.46438157	     -1.49916138	     18.84161654	     -5.02234742	     -4.02818103	     32.42042482	     32.42042482	     19.21535155	    -16.99657088	      6.08802056	    -10.03569255	      5.22833010	      1.66728600	      4.83128277	    -12.15227629	     -8.79795875	     23.91994837	     46.34598019	      0.00000000	      0.00000000	     23.27165895	    -16.90212389	     -2.97343086	     43.92045316	     46.12108907	      0.00000000	      0.00000000
     43.03507143	     -4.31094488	     -5.65171001	     -6.70380954	      0.92446396	      0.91722042	      0.43577602	     23.45191860	     -5.71454041	     -3.08300276	     61.99292473	     61.99292473	      3.71649491	    -14.45542622	     -0.36778421	     18.42483572	     -5.07992154	     -4.33456296	     32.80107489	     32.80107489	     20.14771559	    -17.12321001	      7.05897234	    -10.35826700	      5.44464572	      1.48930923	      1.61257875	    -12.24260800	     -9.30611658	     24.30812657	     46.36223935	      0.00000000	      0.00000000	     23.96978078	    -17.30575052	     -3.75372934	     45.95677886	     46.25589229	      0.00000000	      0.00000000
     43.05342857	     -4.26659827	     -5.74305629	     -7.34420881	      0.92312940	      0.91675476	      0.43542587	     24.67901129	     -5.38686646	     -2.84565470	     61.88272668	     61.88272668	      4.30688910	    -14.55490163	     -0.36843150	     18.00943082	     -5.19780151	     -4.74264646	     32.95664445	     32.95664445	     20.58120114	    -17.33153166	      7.08291055	    -10.54367699	      5.66471488	      1.40978292	     -1.07560224	    -12.36704361	     -9.41598467	     23.39496379	     46.39254442	      0.00000000	      0.00000000	     25.03704626	    -17.69070041	     -4.12025097	     47.02517597	     46.31984665	      0.00000000	      0.00000000
     43.07178571	     -4.23365117	     -5.82945455	     -8.01338981	      0.92173827	      0.91673544	      0.43541913	     25.75072038	     -5.00349968	     -2.61038080	     61.17843629	     61.17843629	      4.92575686	    -14.51151977	     -0.36433154	     17.48233700	     -5.33064991	     -5.21837632	     32.88105566	     32.88105566	     20.97827565	    -17.44265360	      7.22341377	    -10.76037170	      5.84885997	      1.39344651	     -3.69461758	    -12.46421793	     -9.66191911	     22.87304807	     46.41953865	      0.00000000	      0.00000000	     25.99540967	    -18.06975316	     -4.62251933	     48.35916889	     46.39875057	      0.00000000	      0.00000000
     43.09014286	     -4.32479809	     -5.87828183	     -8.66622247	      0.92021164	      0.91699038	      0.43576605	     26.76558888	     -4.59168818	     -2.38909309	     59.85001050	     59.85001050	      5.61696847	    -14.25656050	     -0.47912924	     17.05204508	     -5.46834974	     -5.73579469	     32.68326745	     32.68326745	     21.17095935	    -17.51718101	      7.24781453	    -10.70485123	      5.95855994	      0.67849117	     -5.52706293	    -12.55734884	     -9.75037411	     22.31411184	     46.43542845	      0.00000000	      0.00000000	     26.83851549	    -18.98172920	     -4.91655091	     48.77969085	     46.43906704	      0.00000000	      0.00000000
